<?xml version="1.0" standalone="no"?><!DOCTYPE svg PUBLIC "-//W3C//DTD SVG 1.1//EN" "http://www.w3.org/Graphics/SVG/1.1/DTD/svg11.dtd"><svg t="1581488067890" class="icon" viewBox="0 0 1024 1024" version="1.1" xmlns="http://www.w3.org/2000/svg" p-id="3527" width="32" height="32" xmlns:xlink="http://www.w3.org/1999/xlink"><defs><style type="text/css"></style></defs><path d="M511.905185 18.962963C239.672889 18.962963 18.962963 239.672889 18.962963 511.905185 18.962963 784.156444 239.672889 1004.847407 511.905185 1004.847407c272.232296 0 492.942222-220.709926 492.942222-492.942222C1004.847407 239.672889 784.137481 18.962963 511.905185 18.962963z m0-18.962963C794.605037 0 1023.81037 229.18637 1023.81037 511.905185S794.605037 1023.81037 511.905185 1023.81037C229.205333 1023.81037 0 794.624 0 511.905185S229.205333 0 511.905185 0z" p-id="3528" data-spm-anchor-id="a313x.7781069.0.i0" class="" fill="#cdcdcd"></path><path d="M481.166222 630.442667S609.962667 382.160593 758.139259 284.444444c-18.261333 46.819556-11.643259 134.485333 0 181.229037-72.248889 16.497778-220.804741 201.841778-268.970666 292.465778-68.209778-86.528-147.892148-142.411852-204.705186-172.999111l78.127408-74.676148 118.575407 119.978667z" p-id="3529" data-spm-anchor-id="a313x.7781069.0.i4" class="selected" fill="#71dd5d"></path></svg>