<?xml version="1.0" standalone="no"?><!DOCTYPE svg PUBLIC "-//W3C//DTD SVG 1.1//EN" "http://www.w3.org/Graphics/SVG/1.1/DTD/svg11.dtd"><svg t="1581329090849" class="icon" viewBox="0 0 1024 1024" version="1.1" xmlns="http://www.w3.org/2000/svg" p-id="3952" width="128" height="128" xmlns:xlink="http://www.w3.org/1999/xlink"><defs><style type="text/css"></style></defs><path d="M925.315245 368.619793v347.689969c0 157.863462-129.161014 287.024476-287.024476 287.024476H385.709231c-157.863462 0-287.024476-129.161014-287.024476-287.024476V365.06069" fill="#92E0D1" p-id="3953"></path><path d="M101.267975 381.214427c0.091848 0 1.768071-95.900618 4.45462-102.479218 11.320245-27.611755 40.711552-99.884517 47.336077-106.864953 10.068819-10.596944 24.6267-25.969975 40.34416-42.089269 32.72079-33.501497 70.493211-70.24063 83.535603-73.8801C300.038165 49.551905 385.709231 21.653126 388.005427 21.653126c36.953827 0 66.911146 29.957319 66.911145 66.911146 0 14.500477-37.887231 53.386552-64.833088 86.601025-12.238724 15.108968-24.580776 74.959312-34.59219 84.959245-7.095245 6.991916 114.430918 115.360877 110.58479 117.438934M920.780258 381.214427c-0.080367 0-1.75659-95.900618-4.45462-102.479218-11.308764-27.611755-40.700071-99.884517-47.324595-106.864953-10.068819-10.596944-24.6267-25.969975-40.344161-42.089269-32.709309-33.501497-70.493211-70.24063-83.535603-73.8801-23.09973-6.348981-108.8282-34.24776-111.066991-34.247761-36.953827-0.019518-66.926071 29.922876-66.945589 66.876703v0.034443c0 14.500477 37.887231 53.386552 64.833089 86.601025 12.238724 15.108968 24.580776 74.959312 34.59219 84.959245 7.118207 6.991916-114.350551 115.360877-110.527385 117.438934" fill="#92E0D1" p-id="3954"></path><path d="M638.290769 911.486406H385.709231c-157.863462 0-287.024476-129.161014-287.024476-287.024476v91.847832c0 157.863462 129.161014 287.024476 287.024476 287.024476h252.581538c157.863462 0 287.024476-129.161014 287.024476-287.024476v-91.847832c0 157.863462-129.161014 287.024476-287.024476 287.024476z" fill="#5FB2A2" p-id="3955"></path><path d="M98.684755 418.952406c-12.681889 0-22.961958-10.280069-22.961958-22.961959 0-45.050214 7.777215-88.578049 23.115803-129.373412 14.889682-39.600193 36.53592-75.717057 64.339407-107.34945C218.866495 95.908654 297.133478 54.108706 383.559991 41.569181c12.560191-1.820883 24.200756 6.877106 26.021639 19.426964s-6.877106 24.200756-19.426964 26.021639C232.060437 109.954484 121.646713 237.008739 121.646713 395.990447c0 12.681889-10.280069 22.961958-22.961958 22.961959zM925.315245 418.952406c-12.681889 0-22.961958-10.280069-22.961958-22.961959 0-156.040282-108.61121-282.743218-264.121071-308.11733-12.515415-2.041318-21.006747-13.843765-18.965429-26.359179 2.042466-12.516563 13.843765-21.010192 26.360328-18.964282 85.057981 13.878207 161.980541 56.140839 216.597854 119.001496 27.360321 31.490029 48.655241 67.314128 63.295785 106.479192C940.620538 308.427317 948.277203 351.478692 948.277203 395.990447c0 12.681889-10.280069 22.961958-22.961958 22.961959zM512 439.893711c-46.849283 0-91.121086-14.990714-124.658174-42.209819C352.232992 369.188102 332.896727 330.826707 332.896727 289.665101c0-47.580621 25.86435-91.276079 70.960487-119.883235 12.048139-7.644036 28.008996-4.071155 35.650736 7.975836 7.642888 12.046991 4.071155 28.008996-7.975836 35.650736-29.850545 18.936727-46.972129 46.731029-46.972129 76.256663 0 25.293745 12.549858 49.408393 35.338453 67.90425 24.360341 19.771394 57.069651 30.659954 92.100414 30.659955 35.031911 0 67.740072-10.888561 92.100414-30.659955C626.887861 339.073494 639.438867 314.958846 639.438867 289.665101c0-28.502679-16.152589-55.666675-44.317727-74.528776-11.852963-7.939097-15.027453-23.983765-7.089505-35.837876 7.937949-11.852963 23.984913-15.026305 35.839025-7.089504C666.597123 200.822989 691.103273 243.63556 691.103273 289.665101c0 41.161606-19.336265 79.524149-54.445099 108.018791C603.121086 424.902997 558.850431 439.893711 512 439.893711z" fill="#FFFFFF" p-id="3956"></path><path d="M601.527526 215.421054a25.705912 25.705912 0 0 1-13.25479-3.678506c-43.864228-26.287998-58.163788-83.361092-31.876938-127.225321 16.664641-27.803487 47.144344-45.068583 79.554-45.068583h0.063145c4.745089 0.002296 9.537249 0.369688 14.236414 1.091841 14.100938 2.166461 23.777108 15.353513 21.610647 29.454452-2.166461 14.09979-15.34318 23.774811-29.454452 21.610647a42.57147 42.57147 0 0 0-6.423608-0.492534h-0.027554c-14.362705 0-27.86204 7.64748-35.243161 19.963126-11.642861 19.428113-5.308805 44.70808 14.120456 56.352089 12.237576 7.334049 16.21229 23.199614 8.878241 35.43719-4.842677 8.078017-13.402895 12.555599-22.1824 12.555599zM419.025884 217.408411c-9.328295 0-18.335123-5.067704-22.937848-13.914946-6.584341-12.655483-1.662446-28.253541 10.994185-34.839031 13.672698-7.113615 22.150253-21.106632 22.124995-36.519846-0.037887-22.633602-18.464859-41.021538-41.090424-41.021538-2.864504 0.030999-5.700306 0.27784-8.466074 0.839259-13.984981 2.838098-27.616347-6.198581-30.452149-20.180117-2.83695-13.981536 6.198581-27.616347 20.180117-30.452148 6.164138-1.250279 12.464899-1.843845 18.778289-1.870252 51.036396 0 92.628539 41.506035 92.713498 92.600984 0.057405 34.791959-19.080239 66.380725-49.944554 82.43917a25.741503 25.741503 0 0 1-11.900035 2.918465z" fill="#FFFFFF" p-id="3957"></path><path d="M381.690888 554.841273c-15.218038 0-27.55435-12.336312-27.55435-27.554349v-33.937774c0-15.218038 12.336312-27.55435 27.55435-27.55435s27.55435 12.336312 27.55435 27.55435v33.937774c0 15.21689-12.336312 27.55435-27.55435 27.554349zM642.309112 554.841273c-15.218038 0-27.55435-12.336312-27.55435-27.554349v-33.937774c0-15.218038 12.336312-27.55435 27.55435-27.55435s27.55435 12.336312 27.55435 27.55435v33.937774c0 15.21689-12.336312 27.55435-27.55435 27.554349zM512.664749 574.988095a58.036349 58.036349 0 0 1-12.31335-1.326053c-22.151401-4.808234-39.57149-22.228323-44.378577-44.379724-2.421338-11.153771 4.658981-22.157141 15.811605-24.57848 11.153771-2.419042 22.15829 4.658981 24.57848 15.811604a16.705973 16.705973 0 0 0 12.755367 12.75422c8.983866 1.956359 17.875884-3.771502 19.826503-12.75422 2.421338-11.153771 13.428153-18.232943 24.579628-15.811604 11.153771 2.421338 18.232943 13.425857 15.811604 24.579628-5.887446 27.123813-29.979132 45.704629-56.67126 45.704629zM98.684755 457.023332c-11.413241 0-20.665762-9.252521-20.665762-20.665762v-75.958158c0-88.328912 30.775912-173.194013 86.657282-238.963949C220.557644 55.666675 298.409014 12.616448 383.890644 0.214694c11.292691-1.632595 21.780565 6.190544 23.418901 17.484383 1.638336 11.294987-6.189396 21.780565-17.484383 23.418901C233.101761 63.856057 119.350517 198.132995 119.350517 360.399412v75.958158c0 11.413241-9.252521 20.665762-20.665762 20.665762z" fill="#684F50" p-id="3958"></path><path d="M638.290769 1024H385.709231c-81.869713 0-159.050595-32.092781-217.3246-90.366786C110.111774 875.360357 78.018993 798.180624 78.018993 716.309762V433.946564c0-11.413241 9.252521-20.665762 20.665762-20.665762s20.665762 9.252521 20.665762 20.665762v282.363198c0 146.870424 119.488289 266.358713 266.358714 266.358714h252.581538c146.870424 0 266.358713-119.488289 266.358714-266.358714V437.505668c0-11.413241 9.252521-20.665762 20.665762-20.665763s20.665762 9.252521 20.665762 20.665763v278.804094c0 81.870861-32.092781 159.050595-90.366786 217.323452-58.272857 58.274005-135.452591 90.366786-217.323452 90.366786z" fill="#684F50" p-id="3959"></path><path d="M925.315245 457.023332c-11.413241 0-20.665762-9.252521-20.665762-20.665762v-75.958158c0-159.351396-111.889029-293.266684-266.047579-318.419212-11.265137-1.838105-18.906876-12.460307-17.067624-23.724295 1.838105-11.263989 12.45801-18.90458 23.723147-17.068772C819.508838 29.619778 945.981007 180.689944 945.981007 360.399412v75.958158c0 11.413241-9.252521 20.665762-20.665762 20.665762z" fill="#684F50" p-id="3960"></path><path d="M806.34934 309.366461c-11.413241 0-20.665762-9.252521-20.665762-20.665762 0-70.458768-41.20753-132.448018-104.979776-157.926607-10.598092-4.234185-15.758792-16.259362-11.524607-26.857455 4.234185-10.59924 16.261659-15.761088 26.858603-11.524606 79.566629 31.787387 130.977305 108.843125 130.977304 196.307519 0 11.414389-9.252521 20.66691-20.665762 20.666911zM217.65066 309.366461c-11.413241 0-20.665762-9.252521-20.665762-20.665762 0-87.439136 51.409528-164.493727 130.971564-196.305224 10.596944-4.236481 22.624417 0.918478 26.860898 11.51657 4.237629 10.596944-0.918478 22.624417-11.51657 26.860898-63.77569 25.500403-104.984368 87.490801-104.984368 157.928904 0 11.412093-9.252521 20.664614-20.665762 20.664614zM607.670998 928.19123H416.329002c-63.352042 0-123.072651-24.83221-168.160752-69.921458C203.079001 813.179375 178.24794 753.455322 178.24794 690.098687c0-11.413241 9.252521-20.665762 20.665762-20.665762s20.665762 9.252521 20.665762 20.665762c0 108.494104 88.261174 196.761018 196.749538 196.761019h191.341996c108.488363 0 196.749538-88.266915 196.749538-196.761019 0-11.413241 9.252521-20.665762 20.665762-20.665762s20.665762 9.252521 20.665762 20.665762c0 63.356635-24.831061 123.080688-69.919162 168.171085s-104.808709 69.921458-168.1619 69.921458zM512 391.09955c-45.66789 0-88.782411-14.579695-121.402168-41.054832C356.719759 322.548921 338.063168 285.612315 338.063168 246.03738c0-45.774663 24.989499-87.880006 68.56211-115.52161 9.638282-6.113621 22.406279-3.256006 28.521048 6.381128 6.113621 9.638282 3.257154 22.407427-6.381128 28.521048-31.375219 19.903425-49.370506 49.287843-49.370506 80.619434 0 57.197089 59.486397 103.730645 132.605308 103.730646s132.605308-46.533556 132.605308-103.730646c0-30.255824-16.988405-58.984678-46.608183-78.821513-9.484437-6.351278-12.022881-19.187012-5.671603-28.670301 6.351278-9.483289 19.189308-12.021733 28.6703-5.671603 41.270675 27.639309 64.94101 68.885874 64.94101 113.163417 0 39.574935-18.656591 76.512688-52.534664 104.007338C600.782411 376.519855 557.66789 391.09955 512 391.09955z" fill="#684F50" p-id="3961"></path><path d="M601.532119 166.626893a20.573914 20.573914 0 0 1-10.603833-2.942575c-41.421076-24.824173-54.923856-78.717036-30.10083-120.139261C576.562137 17.290354 605.344952 0.987364 635.949798 0.987364h0.059701c4.48447 0.002296 9.013717 0.349022 13.455707 1.030992 11.28121 1.73248 19.021686 12.283499 17.289206 23.563561-1.731332 11.28121-12.28924 19.01939-23.562413 17.289207a47.832055 47.832055 0 0 0-7.205462-0.552235h-0.030999c-16.166367 0-31.363738 8.608438-39.673671 22.472868-13.107834 21.872413-5.976998 50.331464 15.895415 63.439298 9.789831 5.86678 12.970062 18.560151 7.103282 28.348833-3.875979 6.463791-10.724383 10.047005-17.748445 10.047005zM419.021291 168.61425c-7.462636 0-14.668099-4.055082-18.350048-11.131957-5.267473-10.125075-1.329497-22.603751 8.795578-27.871225 15.392549-8.007983 24.935538-23.761034 24.906836-41.112237-0.04248-25.479737-20.786313-46.179942-46.255717-46.179942-3.215822-0.027554-6.388017 0.312283-9.493621 0.942588-11.187066 2.272086-22.093996-4.958635-24.362638-16.144553-2.26979-11.185918 4.958635-22.092848 16.144553-24.362637a88.774374 88.774374 0 0 1 17.596896-1.768071h0.146957c48.199446 0 87.473579 39.193766 87.555094 87.443729 0.053961 32.85397-18.0171 62.682701-47.162714 77.846778a20.581951 20.581951 0 0 1-9.521176 2.337527z" fill="#684F50" p-id="3962"></path><path d="M827.703961 568.009956c-9.510843 0-17.221469-7.710626-17.221468-17.221468V388.04561c0-9.510843 7.710626-17.221469 17.221468-17.221469s17.221469 7.710626 17.221469 17.221469v162.742878c0 9.510843-7.709477 17.221469-17.221469 17.221468zM827.703961 644.209214c-9.510843 0-17.221469-7.710626-17.221468-17.221469v-23.386754c0-9.510843 7.710626-17.221469 17.221468-17.221468s17.221469 7.710626 17.221469 17.221468v23.386754c0 9.511991-7.709477 17.221469-17.221469 17.221469z" fill="#FFFFFF" p-id="3963"></path></svg>