<?xml version="1.0" standalone="no"?><!DOCTYPE svg PUBLIC "-//W3C//DTD SVG 1.1//EN" "http://www.w3.org/Graphics/SVG/1.1/DTD/svg11.dtd"><svg t="1581329072242" class="icon" viewBox="0 0 1182 1024" version="1.1" xmlns="http://www.w3.org/2000/svg" p-id="3710" width="147.75" height="128" xmlns:xlink="http://www.w3.org/1999/xlink"><defs><style type="text/css"></style></defs><path d="M441.402062 383.155464c-17.491134 0-31.670103-14.178969-31.670103-31.670103v-39.020206c0-17.491134 14.178969-31.670103 31.670103-31.670103s31.670103 14.178969 31.670103 31.670103v39.020206c0 17.491134-14.178969 31.670103-31.670103 31.670103zM740.948454 383.155464c-17.491134 0-31.670103-14.178969-31.670103-31.670103v-39.020206c0-17.491134 14.178969-31.670103 31.670103-31.670103s31.670103 14.178969 31.670103 31.670103v39.020206c0 17.491134-14.178969 31.670103-31.670103 31.670103zM591.939299 406.311588a66.705155 66.705155 0 0 1-14.152577-1.524124c-25.460124-5.526433-45.482227-25.548536-51.007341-51.00866-2.781691-12.819794 5.354887-25.468041 18.173361-28.249732 12.819794-2.78301 25.468041 5.354887 28.249732 18.173361a19.205278 19.205278 0 0 0 14.660619 14.660619c10.325773 2.243299 20.545979-4.336165 22.787959-14.660619 2.78301-12.821113 15.433897-20.957691 28.251051-18.173361 12.819794 2.781691 20.956371 15.429938 18.173361 28.249732-6.765526 31.176577-34.455753 52.532784-65.136165 52.532784z" fill="#474747" p-id="3711"></path><path d="M1039.835052 190.020619H142.515464c-13.118021 0-23.752577-10.634557-23.752577-23.752578s10.634557-23.752577 23.752577-23.752577h897.319588c13.118021 0 23.752577 10.634557 23.752577 23.752577s-10.634557 23.752577-23.752577 23.752578zM446.020619 902.597938H102.927835c-13.118021 0-23.752577-10.634557-23.752577-23.752577s10.634557-23.752577 23.752577-23.752577h343.092784c13.118021 0 23.752577 10.634557 23.752577 23.752577s-10.634557 23.752577-23.752577 23.752577zM1079.42268 902.597938H736.329897c-13.118021 0-23.752577-10.634557-23.752577-23.752577s10.634557-23.752577 23.752577-23.752577h343.092783c13.118021 0 23.752577 10.634557 23.752578 23.752577s-10.634557 23.752577-23.752578 23.752577z" fill="#2AAC9A" p-id="3712"></path><path d="M1047.752577 1024H666.391753c-12.924041 0-23.475464-10.332371-23.747299-23.253773l-7.231341-344.412371a20.955052 20.955052 0 0 1-0.005278-0.498804c0-29.430763-18.199753-49.985979-44.258969-49.98598-26.059216 0-44.258969 20.555216-44.258969 49.98598 0 0.164948-0.00132 0.329897-0.005278 0.494845l-7.178557 344.412371C539.436866 1013.66499 528.884124 1024 515.958763 1024H134.597938C60.380371 1024 0 963.779299 0 889.758351c0-0.418309 0.010557-0.837938 0.03299-1.256248L40.024412 133.581856C40.38466 59.863093 100.625155 0 174.621031 0h833.082062c73.995876 0 134.237691 59.865732 134.596618 133.581856l40.016495 754.917608c0.022433 0.418309 0.03299 0.839258 0.03299 1.257567C1182.350515 963.779299 1121.970144 1024 1047.752577 1024z m-358.101773-47.505155H1047.752577c47.823175 0 86.768165-38.59134 87.090145-86.145319l-40.012536-754.85031a23.491299 23.491299 0 0 1-0.03299-1.257567c0-47.827134-39.069031-86.736495-87.092784-86.736494H174.621031c-48.023753 0-87.092784 38.909361-87.092784 86.736494 0 0.418309-0.010557 0.837938-0.032989 1.256248L47.506474 890.348206C47.824495 937.906144 86.770804 976.494845 134.597938 976.494845h358.097815l6.688989-320.923711c0.125361-55.447753 39.532206-97.227216 91.764124-97.227216 52.227959 0 91.633485 41.778144 91.764124 97.220618L689.650804 976.494845zM1142.301031 134.241649h0.013196-0.013196z" fill="#474747" p-id="3713"></path></svg>